<svg width="22" height="22" viewBox="0 0 22 22" fill="none" xmlns="http://www.w3.org/2000/svg">
<path d="M5.54331 0H5.37008C2.4252 0 0 2.4252 0 5.37008V16.5722C0 19.5171 2.4252 21.9423 5.37008 21.9423H5.77428C4.38845 18.3045 3.69554 14.4934 3.69554 10.5669C3.69554 6.92913 4.33071 3.40682 5.54331 0Z" fill="#242748"/>
<path d="M16.5723 0H9.41224C8.08415 3.29134 7.3335 6.87139 7.3335 10.5669C7.3335 14.6089 8.19964 18.4199 9.75869 21.9423H16.6301C19.575 21.9423 22.0002 19.5171 22.0002 16.5722V5.37008C21.9424 2.4252 19.5172 0 16.5723 0ZM13.1655 20.5564C12.7613 20.8451 12.1839 20.7874 11.8374 20.3832C9.81644 17.727 8.71932 14.4934 8.71932 11.1444C8.71932 7.73753 9.81644 4.50394 11.8374 1.84777C12.1839 1.44357 12.7613 1.38583 13.1655 1.67454C13.5697 2.021 13.6275 2.59843 13.3387 3.00262C11.6065 5.25459 10.6248 8.08399 10.6248 11.1444C10.6248 14.2047 11.6642 16.9764 13.3387 19.2283C13.3387 19.2283 13.3387 19.2283 13.3965 19.2861C13.6852 19.6903 13.6275 20.2677 13.1655 20.5564ZM16.6301 17.9003C16.3414 18.1312 15.9372 18.0735 15.7639 17.7848C14.3204 15.937 13.4542 13.685 13.4542 11.1444C13.4542 8.66142 14.3204 6.35171 15.7639 4.50394C15.7639 4.50394 15.7639 4.50394 15.7639 4.44619C15.9949 4.15748 16.3991 4.15748 16.6301 4.33071C16.9188 4.56168 16.9188 4.96588 16.7456 5.19685C16.7456 5.19685 16.7456 5.19685 16.6878 5.25459C15.4175 6.87139 14.6668 8.89239 14.6668 11.0866C14.6668 13.2808 15.4175 15.3018 16.6878 16.9186C16.6878 16.9186 16.6878 16.9186 16.7456 16.9764C16.9765 17.2651 16.9188 17.6693 16.6301 17.9003Z" fill="#242748"/>
</svg>
